<svg xmlns="http://www.w3.org/2000/svg" xmlns:xlink="http://www.w3.org/1999/xlink" width="400" zoomAndPan="magnify" viewBox="0 0 300 60" height="80" preserveAspectRatio="xMidYMid meet" version="1.0"><defs><g/><clipPath id="45bd613b02"><path d="M 27.976562 0.164062 L 70.097656 0.164062 L 70.097656 59.886719 L 27.976562 59.886719 Z M 27.976562 0.164062 " clip-rule="nonzero"/></clipPath><clipPath id="a3aa2cdf90"><path d="M 70.097656 0.75 L 70.097656 50.90625 C 70.097656 51.359375 69.820312 51.765625 69.398438 51.933594 L 49.734375 59.722656 C 49.285156 59.898438 48.785156 59.898438 48.339844 59.722656 L 28.671875 51.933594 C 28.253906 51.765625 27.976562 51.359375 27.976562 50.90625 L 27.976562 0.75 C 27.976562 0.578125 28.058594 0.421875 28.199219 0.328125 C 28.339844 0.230469 28.515625 0.210938 28.671875 0.273438 L 48.339844 8.0625 C 48.785156 8.242188 49.285156 8.242188 49.734375 8.0625 L 69.398438 0.273438 C 69.554688 0.210938 69.734375 0.230469 69.871094 0.328125 C 70.011719 0.421875 70.097656 0.578125 70.097656 0.75 Z M 70.097656 0.75 " clip-rule="nonzero"/></clipPath><clipPath id="40e865bf99"><path d="M 0.976562 0.164062 L 43.097656 0.164062 L 43.097656 59.886719 L 0.976562 59.886719 Z M 0.976562 0.164062 " clip-rule="nonzero"/></clipPath><clipPath id="8898122854"><path d="M 43.097656 0.75 L 43.097656 50.90625 C 43.097656 51.359375 42.820312 51.765625 42.398438 51.933594 L 22.734375 59.722656 C 22.285156 59.898438 21.785156 59.898438 21.339844 59.722656 L 1.671875 51.933594 C 1.253906 51.765625 0.976562 51.359375 0.976562 50.90625 L 0.976562 0.75 C 0.976562 0.578125 1.058594 0.421875 1.199219 0.328125 C 1.339844 0.230469 1.515625 0.210938 1.671875 0.273438 L 21.339844 8.0625 C 21.785156 8.242188 22.285156 8.242188 22.734375 8.0625 L 42.398438 0.273438 C 42.554688 0.210938 42.734375 0.230469 42.871094 0.328125 C 43.011719 0.421875 43.097656 0.578125 43.097656 0.75 Z M 43.097656 0.75 " clip-rule="nonzero"/></clipPath><clipPath id="a482add68a"><rect x="0" width="44" y="0" height="60"/></clipPath><clipPath id="576b67b99a"><path d="M 72.351562 18.835938 L 74.949219 18.835938 L 74.949219 21.4375 L 72.351562 21.4375 Z M 72.351562 18.835938 " clip-rule="nonzero"/></clipPath><clipPath id="23b6f56bb4"><path d="M 0.351562 0.835938 L 2.949219 0.835938 L 2.949219 3.4375 L 0.351562 3.4375 Z M 0.351562 0.835938 " clip-rule="nonzero"/></clipPath><clipPath id="ce7fda6397"><rect x="0" width="3" y="0" height="4"/></clipPath><clipPath id="23bb1fa67b"><path d="M 66.117188 23.84375 L 73.652344 23.84375 L 73.652344 26.511719 L 66.117188 26.511719 Z M 66.117188 23.84375 " clip-rule="nonzero"/></clipPath><clipPath id="e1e55d85fc"><path d="M 0.117188 0.84375 L 7.652344 0.84375 L 7.652344 3.511719 L 0.117188 3.511719 Z M 0.117188 0.84375 " clip-rule="nonzero"/></clipPath><clipPath id="84b0c3a812"><rect x="0" width="8" y="0" height="4"/></clipPath><clipPath id="ae21f9c0af"><path d="M 74.949219 28.601562 L 78.042969 28.601562 L 78.042969 31.695312 L 74.949219 31.695312 Z M 74.949219 28.601562 " clip-rule="nonzero"/></clipPath><clipPath id="a360f3e0f4"><path d="M 0.949219 0.601562 L 4.042969 0.601562 L 4.042969 3.695312 L 0.949219 3.695312 Z M 0.949219 0.601562 " clip-rule="nonzero"/></clipPath><clipPath id="28f0d60fdb"><rect x="0" width="5" y="0" height="4"/></clipPath><clipPath id="3339baf491"><path d="M 68.839844 29.902344 L 72.351562 29.902344 L 72.351562 36.335938 L 68.839844 36.335938 Z M 68.839844 29.902344 " clip-rule="nonzero"/></clipPath><clipPath id="d582beaaf6"><path d="M 0.839844 0.902344 L 4.351562 0.902344 L 4.351562 7.335938 L 0.839844 7.335938 Z M 0.839844 0.902344 " clip-rule="nonzero"/></clipPath><clipPath id="f9e894b292"><rect x="0" width="5" y="0" height="8"/></clipPath><clipPath id="383a10bc8b"><path d="M 66.117188 43.515625 L 73.652344 43.515625 L 73.652344 46.179688 L 66.117188 46.179688 Z M 66.117188 43.515625 " clip-rule="nonzero"/></clipPath><clipPath id="3fe1e2abf9"><path d="M 0.117188 0.515625 L 7.652344 0.515625 L 7.652344 3.179688 L 0.117188 3.179688 Z M 0.117188 0.515625 " clip-rule="nonzero"/></clipPath><clipPath id="0a8f9c418a"><rect x="0" width="8" y="0" height="4"/></clipPath><clipPath id="a0e64160c7"><path d="M 32.511719 13.890625 L 64 13.890625 L 64 43.890625 L 32.511719 43.890625 Z M 32.511719 13.890625 " clip-rule="nonzero"/></clipPath></defs><g clip-path="url(#45bd613b02)"><g clip-path="url(#a3aa2cdf90)"><g transform="matrix(1, 0, 0, 1, 27, -0.000000000000001479)"><g clip-path="url(#a482add68a)"><g clip-path="url(#40e865bf99)"><g clip-path="url(#8898122854)"><path fill="#2e0854" d="M 43.097656 0 L 43.097656 60.054688 L 0.976562 60.054688 L 0.976562 0 Z M 43.097656 0 " fill-opacity="1" fill-rule="nonzero"/></g></g></g></g></g></g><g clip-path="url(#576b67b99a)"><g transform="matrix(1, 0, 0, 1, 72, 18)"><g clip-path="url(#ce7fda6397)"><g clip-path="url(#23b6f56bb4)"><path fill="#2e0854" d="M 0.351562 0.835938 L 2.949219 0.835938 L 2.949219 3.4375 L 0.351562 3.4375 Z M 0.351562 0.835938 " fill-opacity="1" fill-rule="nonzero"/></g></g></g></g><g clip-path="url(#23bb1fa67b)"><g transform="matrix(1, 0, 0, 1, 66, 23)"><g clip-path="url(#84b0c3a812)"><g clip-path="url(#e1e55d85fc)"><path fill="#2e0854" d="M 0.117188 0.84375 L 7.652344 0.84375 L 7.652344 3.511719 L 0.117188 3.511719 Z M 0.117188 0.84375 " fill-opacity="1" fill-rule="nonzero"/></g></g></g></g><g clip-path="url(#ae21f9c0af)"><g transform="matrix(1, 0, 0, 1, 74, 28)"><g clip-path="url(#28f0d60fdb)"><g clip-path="url(#a360f3e0f4)"><path fill="#2e0854" d="M 0.949219 0.601562 L 4.042969 0.601562 L 4.042969 3.695312 L 0.949219 3.695312 Z M 0.949219 0.601562 " fill-opacity="1" fill-rule="nonzero"/></g></g></g></g><g clip-path="url(#3339baf491)"><g transform="matrix(1, 0, 0, 1, 68, 29)"><g clip-path="url(#f9e894b292)"><g clip-path="url(#d582beaaf6)"><path fill="#2e0854" d="M 0.839844 0.902344 L 4.351562 0.902344 L 4.351562 7.335938 L 0.839844 7.335938 Z M 0.839844 0.902344 " fill-opacity="1" fill-rule="nonzero"/></g></g></g></g><g clip-path="url(#383a10bc8b)"><g transform="matrix(1, 0, 0, 1, 66, 43)"><g clip-path="url(#0a8f9c418a)"><g clip-path="url(#3fe1e2abf9)"><path fill="#2e0854" d="M 0.117188 0.515625 L 7.652344 0.515625 L 7.652344 3.179688 L 0.117188 3.179688 Z M 0.117188 0.515625 " fill-opacity="1" fill-rule="nonzero"/></g></g></g></g><g clip-path="url(#a0e64160c7)"><path fill="#ffd700" d="M 48.4375 13.890625 C 39.492188 13.890625 32.53125 20.441406 32.53125 28.964844 C 32.53125 37.3125 39.183594 43.515625 47.984375 43.515625 C 50.621094 43.515625 54.046875 42.582031 56.097656 41.121094 L 54.679688 38.589844 C 52.734375 39.984375 50.039062 40.636719 47.988281 40.636719 C 40.921875 40.636719 35.523438 35.71875 35.523438 28.964844 C 35.523438 22.105469 41.238281 16.699219 48.441406 16.699219 C 56.136719 16.699219 60.949219 22 60.949219 28.894531 C 60.949219 32.453125 59.390625 34.921875 57.6875 34.921875 C 56.753906 34.921875 56.097656 34.363281 56.097656 33.046875 L 56.097656 20.960938 L 52.355469 20.960938 L 52.355469 23.210938 C 52.003906 22.484375 49.929688 20.613281 46.878906 20.613281 C 42.269531 20.613281 39.257812 24.3125 39.257812 28.890625 C 39.257812 33.734375 43.035156 36.992188 47.257812 36.992188 C 49.652344 36.992188 51.800781 35.996094 53.21875 33.910156 L 53.285156 34.601562 C 53.671875 36.542969 55.1875 37.410156 57.304688 37.410156 C 61.191406 37.410156 63.925781 34.007812 63.925781 28.789062 C 63.925781 20.160156 57.339844 13.890625 48.4375 13.890625 Z M 47.671875 33.601562 C 45.035156 33.601562 43.304688 31.382812 43.304688 28.722656 C 43.304688 26.152344 45.035156 24.082031 47.597656 24.082031 C 50.335938 24.082031 52.101562 26.152344 52.101562 28.757812 C 52.105469 31.457031 50.414062 33.601562 47.671875 33.601562 Z M 47.671875 33.601562 " fill-opacity="1" fill-rule="nonzero"/></g><g fill="#000000" fill-opacity="1"><g transform="translate(89.294864, 43.899998)"><g><path d="M 9.515625 -30.75 L 12.375 -30.75 C 13.90625 -30.75 14.867188 -30.398438 15.265625 -29.703125 C 15.660156 -29.003906 15.722656 -27.863281 15.453125 -26.28125 L 11.609375 -4.3125 C 11.359375 -2.882812 11.285156 -1.875 11.390625 -1.28125 C 11.503906 -0.695312 11.5625 -0.40625 11.5625 -0.40625 C 11.5625 -0.40625 11.382812 -0.335938 11.03125 -0.203125 C 10.675781 -0.0664062 10.070312 0 9.21875 0 C 7.71875 0 6.757812 -0.347656 6.34375 -1.046875 C 5.9375 -1.742188 5.875 -2.882812 6.15625 -4.46875 L 10 -26.484375 C 10.0625 -26.890625 10.109375 -27.253906 10.140625 -27.578125 C 10.179688 -27.910156 10.203125 -28.21875 10.203125 -28.5 L 9.796875 -28.5 C 7.941406 -28.5 6.546875 -28.050781 5.609375 -27.15625 C 4.679688 -26.269531 4.21875 -25.238281 4.21875 -24.0625 C 4.21875 -23.488281 4.359375 -23.03125 4.640625 -22.6875 C 4.929688 -22.351562 5.335938 -22.1875 5.859375 -22.1875 C 6.078125 -22.1875 6.25 -22.203125 6.375 -22.234375 C 6.5 -22.273438 6.5625 -22.296875 6.5625 -22.296875 C 6.5625 -22.296875 6.566406 -22.269531 6.578125 -22.21875 C 6.585938 -22.164062 6.59375 -22.070312 6.59375 -21.9375 C 6.59375 -21.445312 6.332031 -20.941406 5.8125 -20.421875 C 5.300781 -19.898438 4.523438 -19.640625 3.484375 -19.640625 C 2.140625 -19.640625 1.085938 -20.015625 0.328125 -20.765625 C -0.429688 -21.515625 -0.8125 -22.503906 -0.8125 -23.734375 C -0.8125 -25.753906 0.078125 -27.425781 1.859375 -28.75 C 3.648438 -30.082031 6.203125 -30.75 9.515625 -30.75 Z M 9.515625 -30.75 "/></g></g></g><g fill="#000000" fill-opacity="1"><g transform="translate(107.413413, 43.899998)"><g><path d="M 12.140625 -9.796875 L 12.921875 -14.3125 C 13.078125 -15.289062 13.066406 -15.960938 12.890625 -16.328125 C 12.710938 -16.703125 12.394531 -16.890625 11.9375 -16.890625 C 11.28125 -16.890625 10.570312 -16.539062 9.8125 -15.84375 C 9.0625 -15.144531 8.3125 -14.1875 7.5625 -12.96875 C 6.8125 -11.757812 6.140625 -10.375 5.546875 -8.8125 C 4.960938 -7.257812 4.507812 -5.617188 4.1875 -3.890625 C 3.96875 -2.609375 3.90625 -1.703125 4 -1.171875 C 4.09375 -0.640625 4.140625 -0.375 4.140625 -0.375 C 4.140625 -0.375 3.972656 -0.3125 3.640625 -0.1875 C 3.316406 -0.0625 2.773438 0 2.015625 0 C 0.421875 0 -0.539062 -0.316406 -0.875 -0.953125 C -1.21875 -1.597656 -1.269531 -2.632812 -1.03125 -4.0625 L 1.140625 -16.609375 C 1.359375 -17.890625 1.421875 -18.796875 1.328125 -19.328125 C 1.234375 -19.859375 1.1875 -20.125 1.1875 -20.125 C 1.1875 -20.125 1.347656 -20.1875 1.671875 -20.3125 C 2.003906 -20.4375 2.554688 -20.5 3.328125 -20.5 C 4.910156 -20.5 5.867188 -20.179688 6.203125 -19.546875 C 6.546875 -18.921875 6.597656 -17.882812 6.359375 -16.4375 L 6.03125 -14.5625 C 6.570312 -15.457031 7.257812 -16.363281 8.09375 -17.28125 C 8.925781 -18.195312 9.851562 -18.960938 10.875 -19.578125 C 11.90625 -20.191406 12.96875 -20.5 14.0625 -20.5 C 15.34375 -20.5 16.363281 -20.113281 17.125 -19.34375 C 17.894531 -18.582031 18.28125 -17.5625 18.28125 -16.28125 C 18.28125 -15.84375 18.242188 -15.335938 18.171875 -14.765625 C 18.109375 -14.191406 18.023438 -13.585938 17.921875 -12.953125 L 16.9375 -7.171875 C 16.738281 -6.160156 16.753906 -5.304688 16.984375 -4.609375 C 17.222656 -3.910156 17.765625 -3.5625 18.609375 -3.5625 C 19.484375 -3.5625 20.289062 -3.890625 21.03125 -4.546875 C 21.769531 -5.203125 22.398438 -6.066406 22.921875 -7.140625 C 23.191406 -7.140625 23.398438 -7.054688 23.546875 -6.890625 C 23.703125 -6.722656 23.753906 -6.445312 23.703125 -6.0625 C 23.617188 -5.539062 23.378906 -4.9375 22.984375 -4.25 C 22.585938 -3.570312 22.0625 -2.90625 21.40625 -2.25 C 20.75 -1.59375 20.003906 -1.050781 19.171875 -0.625 C 18.335938 -0.207031 17.441406 0 16.484375 0 C 14.953125 0 13.738281 -0.46875 12.84375 -1.40625 C 11.957031 -2.351562 11.515625 -3.59375 11.515625 -5.125 C 11.515625 -5.664062 11.585938 -6.410156 11.734375 -7.359375 C 11.890625 -8.304688 12.023438 -9.117188 12.140625 -9.796875 Z M 12.140625 -9.796875 "/></g></g></g><g fill="#000000" fill-opacity="1"><g transform="translate(130.73797, 43.899998)"><g><path d="M 0 -20.5 L 1.890625 -20.5 L 2.578125 -24.515625 C 3.179688 -27.984375 4.257812 -30.4375 5.8125 -31.875 C 7.375 -33.3125 9.316406 -34.03125 11.640625 -34.03125 C 13.503906 -34.03125 14.890625 -33.5625 15.796875 -32.625 C 16.710938 -31.695312 17.171875 -30.617188 17.171875 -29.390625 C 17.171875 -28.140625 16.835938 -27.117188 16.171875 -26.328125 C 15.503906 -25.535156 14.640625 -25.140625 13.578125 -25.140625 C 12.835938 -25.140625 12.316406 -25.300781 12.015625 -25.625 C 11.710938 -25.945312 11.5625 -26.109375 11.5625 -26.109375 C 11.5625 -26.109375 11.703125 -26.28125 11.984375 -26.625 C 12.273438 -26.96875 12.554688 -27.445312 12.828125 -28.0625 C 13.109375 -28.675781 13.25 -29.378906 13.25 -30.171875 C 13.25 -30.804688 13.097656 -31.265625 12.796875 -31.546875 C 12.492188 -31.835938 12.109375 -31.984375 11.640625 -31.984375 C 11.015625 -31.984375 10.363281 -31.570312 9.6875 -30.75 C 9.019531 -29.925781 8.5 -28.421875 8.125 -26.234375 L 7.140625 -20.5 L 11.234375 -20.5 C 11.234375 -20.5 11.28125 -20.421875 11.375 -20.265625 C 11.46875 -20.117188 11.515625 -19.910156 11.515625 -19.640625 C 11.515625 -19.285156 11.398438 -19 11.171875 -18.78125 C 10.941406 -18.5625 10.59375 -18.453125 10.125 -18.453125 L 6.765625 -18.453125 L 2.25 7.140625 C 1.789062 9.816406 0.992188 11.6875 -0.140625 12.75 C -1.273438 13.8125 -2.71875 14.34375 -4.46875 14.34375 C -5.53125 14.34375 -6.347656 14.117188 -6.921875 13.671875 C -7.503906 13.222656 -7.796875 12.671875 -7.796875 12.015625 C -7.796875 11.578125 -7.738281 11.273438 -7.625 11.109375 C -7.519531 10.941406 -7.46875 10.859375 -7.46875 10.859375 C -7.46875 10.859375 -7.335938 10.945312 -7.078125 11.125 C -6.816406 11.300781 -6.46875 11.390625 -6.03125 11.390625 C -5.257812 11.390625 -4.613281 11.082031 -4.09375 10.46875 C -3.582031 9.851562 -3.1875 8.726562 -2.90625 7.09375 L 1.515625 -18.453125 L -1.109375 -18.453125 C -1.109375 -18.453125 -1.15625 -18.523438 -1.25 -18.671875 C -1.34375 -18.828125 -1.390625 -19.039062 -1.390625 -19.3125 C -1.390625 -19.664062 -1.265625 -19.953125 -1.015625 -20.171875 C -0.773438 -20.390625 -0.4375 -20.5 0 -20.5 Z M 0 -20.5 "/></g></g></g><g fill="#000000" fill-opacity="1"><g transform="translate(142.994638, 43.899998)"><g><path d="M 10.125 -20.5 C 12.53125 -20.5 14.390625 -19.78125 15.703125 -18.34375 C 17.015625 -16.90625 17.671875 -15.015625 17.671875 -12.671875 C 17.671875 -12.234375 17.648438 -11.796875 17.609375 -11.359375 C 17.566406 -10.921875 17.519531 -10.5 17.46875 -10.09375 C 18.507812 -10.25 19.394531 -10.585938 20.125 -11.109375 C 20.863281 -11.628906 21.429688 -12.117188 21.828125 -12.578125 C 22.222656 -13.046875 22.421875 -13.28125 22.421875 -13.28125 C 22.992188 -13.28125 23.242188 -12.941406 23.171875 -12.265625 C 23.085938 -11.796875 22.765625 -11.265625 22.203125 -10.671875 C 21.640625 -10.085938 20.914062 -9.5625 20.03125 -9.09375 C 19.144531 -8.632812 18.15625 -8.335938 17.0625 -8.203125 C 16.375 -5.765625 15.109375 -3.785156 13.265625 -2.265625 C 11.421875 -0.753906 9.101562 0 6.3125 0 C 4.15625 0 2.359375 -0.664062 0.921875 -2 C -0.515625 -3.34375 -1.234375 -5.285156 -1.234375 -7.828125 C -1.234375 -10.316406 -0.773438 -12.507812 0.140625 -14.40625 C 1.054688 -16.3125 2.367188 -17.800781 4.078125 -18.875 C 5.785156 -19.957031 7.800781 -20.5 10.125 -20.5 Z M 10.296875 -12.546875 C 10.296875 -13.253906 10.472656 -13.859375 10.828125 -14.359375 C 11.179688 -14.867188 11.695312 -15.191406 12.375 -15.328125 C 12.15625 -17.429688 11.269531 -18.484375 9.71875 -18.484375 C 8.707031 -18.484375 7.707031 -17.882812 6.71875 -16.6875 C 5.738281 -15.488281 4.960938 -13.359375 4.390625 -10.296875 C 4.273438 -9.773438 4.179688 -9.066406 4.109375 -8.171875 C 4.046875 -7.285156 4.015625 -6.582031 4.015625 -6.0625 C 4.015625 -4.78125 4.253906 -3.789062 4.734375 -3.09375 C 5.210938 -2.394531 5.875 -2.046875 6.71875 -2.046875 C 7.84375 -2.046875 8.847656 -2.640625 9.734375 -3.828125 C 10.617188 -5.015625 11.320312 -6.84375 11.84375 -9.3125 C 10.8125 -10.101562 10.296875 -11.179688 10.296875 -12.546875 Z M 10.296875 -12.546875 "/></g></g></g><g fill="#000000" fill-opacity="1"><g transform="translate(164.761494, 43.899998)"><g><path d="M 7.015625 -14.140625 L 9.59375 -23.078125 C 10.332031 -25.679688 10.773438 -27.539062 10.921875 -28.65625 C 11.078125 -29.78125 11.15625 -30.34375 11.15625 -30.34375 C 11.15625 -30.34375 11.375 -30.410156 11.8125 -30.546875 C 12.25 -30.679688 12.804688 -30.75 13.484375 -30.75 C 14.742188 -30.75 15.625 -30.488281 16.125 -29.96875 C 16.632812 -29.445312 16.914062 -28.4375 16.96875 -26.9375 L 17.828125 -6.8125 L 26.8125 -25.546875 C 27.46875 -26.910156 27.90625 -27.929688 28.125 -28.609375 C 28.34375 -29.296875 28.492188 -29.875 28.578125 -30.34375 C 28.578125 -30.34375 28.753906 -30.410156 29.109375 -30.546875 C 29.460938 -30.679688 30.0625 -30.75 30.90625 -30.75 C 32.4375 -30.75 33.398438 -30.394531 33.796875 -29.6875 C 34.203125 -28.976562 34.265625 -27.84375 33.984375 -26.28125 L 30.625 -6.96875 C 30.4375 -5.789062 30.523438 -4.925781 30.890625 -4.375 C 31.265625 -3.832031 31.789062 -3.5625 32.46875 -3.5625 C 33.15625 -3.5625 33.785156 -3.78125 34.359375 -4.21875 C 34.929688 -4.65625 35.425781 -5.15625 35.84375 -5.71875 C 36.269531 -6.28125 36.582031 -6.753906 36.78125 -7.140625 C 37.375 -7.140625 37.632812 -6.78125 37.5625 -6.0625 C 37.445312 -5.25 37.035156 -4.367188 36.328125 -3.421875 C 35.617188 -2.484375 34.722656 -1.675781 33.640625 -1 C 32.554688 -0.332031 31.390625 0 30.140625 0 C 28.691406 0 27.507812 -0.457031 26.59375 -1.375 C 25.675781 -2.289062 25.21875 -3.523438 25.21875 -5.078125 C 25.21875 -6.035156 25.265625 -6.953125 25.359375 -7.828125 C 25.453125 -8.703125 25.59375 -9.6875 25.78125 -10.78125 L 27.875 -22.71875 L 19.3125 -4.640625 C 18.789062 -3.515625 18.425781 -2.5625 18.21875 -1.78125 C 18.019531 -1 17.921875 -0.609375 17.921875 -0.609375 C 17.921875 -0.609375 17.691406 -0.503906 17.234375 -0.296875 C 16.785156 -0.0976562 16.148438 0 15.328125 0 C 14.234375 0 13.507812 -0.375 13.15625 -1.125 C 12.800781 -1.875 12.597656 -2.878906 12.546875 -4.140625 L 11.71875 -22.875 L 7.671875 -7.828125 C 6.898438 -4.929688 6 -2.898438 4.96875 -1.734375 C 3.945312 -0.578125 2.753906 0 1.390625 0 C 0.460938 0 -0.269531 -0.289062 -0.8125 -0.875 C -1.363281 -1.46875 -1.640625 -2.226562 -1.640625 -3.15625 C -1.640625 -3.863281 -1.539062 -4.378906 -1.34375 -4.703125 C -1.15625 -5.035156 -1.0625 -5.203125 -1.0625 -5.203125 C -1.0625 -5.203125 -0.945312 -5.144531 -0.71875 -5.03125 C -0.488281 -4.925781 -0.125 -4.875 0.375 -4.875 C 1.269531 -4.875 2.078125 -5.117188 2.796875 -5.609375 C 3.523438 -6.109375 4.226562 -7.023438 4.90625 -8.359375 C 5.59375 -9.703125 6.296875 -11.628906 7.015625 -14.140625 Z M 7.015625 -14.140625 "/></g></g></g><g fill="#000000" fill-opacity="1"><g transform="translate(201.941413, 43.899998)"><g><path d="M -0.453125 -9.015625 L 0.859375 -16.609375 C 1.078125 -17.921875 1.140625 -18.832031 1.046875 -19.34375 C 0.953125 -19.863281 0.90625 -20.125 0.90625 -20.125 C 0.90625 -20.125 1.066406 -20.1875 1.390625 -20.3125 C 1.722656 -20.4375 2.269531 -20.5 3.03125 -20.5 C 4.613281 -20.5 5.578125 -20.179688 5.921875 -19.546875 C 6.265625 -18.921875 6.3125 -17.882812 6.0625 -16.4375 L 4.46875 -7.171875 C 4.28125 -5.941406 4.34375 -5.03125 4.65625 -4.4375 C 4.96875 -3.851562 5.492188 -3.5625 6.234375 -3.5625 C 6.941406 -3.5625 7.707031 -3.882812 8.53125 -4.53125 C 9.351562 -5.175781 10.019531 -6.046875 10.53125 -7.140625 C 10.8125 -7.140625 11.023438 -7.054688 11.171875 -6.890625 C 11.316406 -6.722656 11.363281 -6.445312 11.3125 -6.0625 C 11.207031 -5.519531 10.957031 -4.90625 10.5625 -4.21875 C 10.164062 -3.539062 9.640625 -2.878906 8.984375 -2.234375 C 8.328125 -1.585938 7.570312 -1.050781 6.71875 -0.625 C 5.875 -0.207031 4.960938 0 3.984375 0 C 2.554688 0 1.398438 -0.441406 0.515625 -1.328125 C -0.367188 -2.222656 -0.8125 -3.488281 -0.8125 -5.125 C -0.8125 -5.53125 -0.785156 -6.078125 -0.734375 -6.765625 C -0.679688 -7.453125 -0.585938 -8.203125 -0.453125 -9.015625 Z M 2.296875 -26.65625 C 2.296875 -27.5 2.582031 -28.203125 3.15625 -28.765625 C 3.726562 -29.328125 4.398438 -29.609375 5.171875 -29.609375 C 5.960938 -29.609375 6.582031 -29.359375 7.03125 -28.859375 C 7.476562 -28.367188 7.703125 -27.753906 7.703125 -27.015625 C 7.703125 -26.304688 7.4375 -25.65625 6.90625 -25.0625 C 6.375 -24.476562 5.65625 -24.1875 4.75 -24.1875 C 4.019531 -24.1875 3.425781 -24.414062 2.96875 -24.875 C 2.519531 -25.34375 2.296875 -25.9375 2.296875 -26.65625 Z M 2.296875 -26.65625 "/></g></g></g><g fill="#000000" fill-opacity="1"><g transform="translate(212.886324, 43.899998)"><g><path d="M -0.25 -20.5 L 1.6875 -20.5 L 2.09375 -22.71875 C 2.332031 -24 2.394531 -24.90625 2.28125 -25.4375 C 2.175781 -25.96875 2.125 -26.234375 2.125 -26.234375 C 2.125 -26.234375 2.285156 -26.296875 2.609375 -26.421875 C 2.941406 -26.546875 3.492188 -26.609375 4.265625 -26.609375 C 5.847656 -26.609375 6.816406 -26.289062 7.171875 -25.65625 C 7.523438 -25.03125 7.566406 -23.992188 7.296875 -22.546875 L 6.921875 -20.5 L 10.984375 -20.5 C 10.984375 -20.5 11.03125 -20.421875 11.125 -20.265625 C 11.226562 -20.117188 11.28125 -19.910156 11.28125 -19.640625 C 11.28125 -19.285156 11.160156 -19 10.921875 -18.78125 C 10.691406 -18.5625 10.34375 -18.453125 9.875 -18.453125 L 6.5625 -18.453125 L 4.59375 -7.171875 C 4.40625 -6.054688 4.507812 -5.175781 4.90625 -4.53125 C 5.300781 -3.882812 5.972656 -3.5625 6.921875 -3.5625 C 8.097656 -3.5625 9.101562 -3.941406 9.9375 -4.703125 C 10.769531 -5.472656 11.40625 -6.285156 11.84375 -7.140625 C 12.125 -7.140625 12.335938 -7.046875 12.484375 -6.859375 C 12.628906 -6.679688 12.664062 -6.414062 12.59375 -6.0625 C 12.394531 -5.25 11.921875 -4.367188 11.171875 -3.421875 C 10.421875 -2.484375 9.488281 -1.675781 8.375 -1 C 7.269531 -0.332031 6.0625 0 4.75 0 C 3.25 0 1.972656 -0.488281 0.921875 -1.46875 C -0.128906 -2.457031 -0.65625 -3.769531 -0.65625 -5.40625 C -0.65625 -5.875 -0.625 -6.460938 -0.5625 -7.171875 C -0.507812 -7.878906 -0.390625 -8.753906 -0.203125 -9.796875 L 1.3125 -18.453125 L -1.359375 -18.453125 C -1.359375 -18.453125 -1.40625 -18.523438 -1.5 -18.671875 C -1.59375 -18.828125 -1.640625 -19.039062 -1.640625 -19.3125 C -1.640625 -19.664062 -1.515625 -19.953125 -1.265625 -20.171875 C -1.023438 -20.390625 -0.6875 -20.5 -0.25 -20.5 Z M -0.25 -20.5 "/></g></g></g><g fill="#000000" fill-opacity="1"><g transform="translate(225.101999, 43.899998)"><g><path d="M 6.359375 -16.4375 L 6.03125 -14.640625 C 7.34375 -16.847656 8.640625 -18.375 9.921875 -19.21875 C 11.203125 -20.070312 12.3125 -20.5 13.25 -20.5 C 14.257812 -20.5 15.054688 -20.222656 15.640625 -19.671875 C 16.222656 -19.128906 16.515625 -18.335938 16.515625 -17.296875 C 16.515625 -16.148438 16.203125 -15.207031 15.578125 -14.46875 C 14.953125 -13.726562 14.132812 -13.359375 13.125 -13.359375 C 12.601562 -13.359375 12.164062 -13.398438 11.8125 -13.484375 C 11.457031 -13.566406 11.28125 -13.609375 11.28125 -13.609375 C 11.28125 -13.609375 11.367188 -13.8125 11.546875 -14.21875 C 11.722656 -14.632812 11.8125 -15.113281 11.8125 -15.65625 C 11.8125 -16.257812 11.523438 -16.5625 10.953125 -16.5625 C 10.617188 -16.5625 10.21875 -16.394531 9.75 -16.0625 C 9.289062 -15.738281 8.71875 -15.097656 8.03125 -14.140625 C 7.507812 -13.429688 7.015625 -12.628906 6.546875 -11.734375 C 6.085938 -10.847656 5.65625 -9.765625 5.25 -8.484375 C 4.84375 -7.203125 4.472656 -5.59375 4.140625 -3.65625 C 3.953125 -2.445312 3.90625 -1.597656 4 -1.109375 C 4.09375 -0.617188 4.140625 -0.375 4.140625 -0.375 C 4.140625 -0.375 3.972656 -0.3125 3.640625 -0.1875 C 3.316406 -0.0625 2.773438 0 2.015625 0 C 0.421875 0 -0.539062 -0.316406 -0.875 -0.953125 C -1.21875 -1.597656 -1.269531 -2.632812 -1.03125 -4.0625 L 1.140625 -16.609375 C 1.359375 -17.890625 1.421875 -18.796875 1.328125 -19.328125 C 1.234375 -19.859375 1.1875 -20.125 1.1875 -20.125 C 1.1875 -20.125 1.347656 -20.1875 1.671875 -20.3125 C 2.003906 -20.4375 2.554688 -20.5 3.328125 -20.5 C 4.910156 -20.5 5.867188 -20.160156 6.203125 -19.484375 C 6.546875 -18.816406 6.597656 -17.800781 6.359375 -16.4375 Z M 6.359375 -16.4375 "/></g></g></g><g fill="#000000" fill-opacity="1"><g transform="translate(243.26154, 43.899998)"><g><path d="M 18.125 -17.140625 L 16.359375 -7.171875 C 16.140625 -5.941406 16.191406 -5.03125 16.515625 -4.4375 C 16.847656 -3.851562 17.382812 -3.5625 18.125 -3.5625 C 18.832031 -3.5625 19.59375 -3.882812 20.40625 -4.53125 C 21.226562 -5.175781 21.898438 -6.046875 22.421875 -7.140625 C 22.703125 -7.140625 22.914062 -7.054688 23.0625 -6.890625 C 23.207031 -6.722656 23.253906 -6.445312 23.203125 -6.0625 C 23.097656 -5.519531 22.847656 -4.90625 22.453125 -4.21875 C 22.054688 -3.539062 21.53125 -2.878906 20.875 -2.234375 C 20.21875 -1.585938 19.460938 -1.050781 18.609375 -0.625 C 17.765625 -0.207031 16.847656 0 15.859375 0 C 14.523438 0 13.421875 -0.398438 12.546875 -1.203125 C 11.671875 -2.015625 11.175781 -3.160156 11.0625 -4.640625 C 10.21875 -3.128906 9.253906 -1.976562 8.171875 -1.1875 C 7.097656 -0.394531 5.972656 0 4.796875 0 C 3.128906 0 1.707031 -0.570312 0.53125 -1.71875 C -0.644531 -2.863281 -1.234375 -4.640625 -1.234375 -7.046875 C -1.234375 -9.347656 -0.929688 -11.335938 -0.328125 -13.015625 C 0.273438 -14.691406 1.066406 -16.082031 2.046875 -17.1875 C 3.035156 -18.300781 4.125 -19.128906 5.3125 -19.671875 C 6.5 -20.222656 7.691406 -20.5 8.890625 -20.5 C 9.929688 -20.5 10.8125 -20.3125 11.53125 -19.9375 C 12.257812 -19.570312 12.859375 -19.085938 13.328125 -18.484375 C 13.648438 -19.222656 14.09375 -19.742188 14.65625 -20.046875 C 15.21875 -20.347656 16.003906 -20.5 17.015625 -20.5 C 17.722656 -20.5 18.238281 -20.429688 18.5625 -20.296875 C 18.894531 -20.160156 19.0625 -20.09375 19.0625 -20.09375 C 19.0625 -20.09375 18.957031 -19.878906 18.75 -19.453125 C 18.550781 -19.023438 18.34375 -18.253906 18.125 -17.140625 Z M 6.4375 -3.5625 C 7.175781 -3.5625 7.859375 -3.894531 8.484375 -4.5625 C 9.117188 -5.238281 9.679688 -6.101562 10.171875 -7.15625 C 10.660156 -8.207031 11.085938 -9.328125 11.453125 -10.515625 C 11.828125 -11.703125 12.109375 -12.800781 12.296875 -13.8125 L 12.671875 -15.75 C 12.472656 -16.15625 12.171875 -16.582031 11.765625 -17.03125 C 11.359375 -17.488281 10.757812 -17.71875 9.96875 -17.71875 C 9.03125 -17.71875 8.101562 -17.28125 7.1875 -16.40625 C 6.28125 -15.53125 5.523438 -14.289062 4.921875 -12.6875 C 4.316406 -11.09375 4.015625 -9.1875 4.015625 -6.96875 C 4.015625 -5.820312 4.222656 -4.96875 4.640625 -4.40625 C 5.066406 -3.84375 5.664062 -3.5625 6.4375 -3.5625 Z M 6.4375 -3.5625 "/></g></g></g></svg>